ffmpeg started on 2016-12-01 at 22:40:28
Report written to "Output/x264/results/ffmpeg/old_town_cross_2160p50slow15000k.log"
Command line:
Tools/ffmpeg/ffmpeg -benchmark -y -i Input/y4m/old_town_cross_2160p50.y4m -c:v libx264 -preset slow -b:v 15000k -an Output/x264/encoded/old_town_cross_2160p50slow15000k.mkv
ffmpeg version N-82227-gdb23fde Copyright (c) 2000-2016 the FFmpeg developers
  built with gcc 5.4.0 (Ubuntu 5.4.0-6ubuntu1~16.04.2) 20160609
  configuration: --prefix=/home/jaroslav/ffmpeg_build --pkg-config-flags=--static --extra-cflags=-I/home/jaroslav/ffmpeg_build/include --extra-ldflags=-L/home/jaroslav/ffmpeg_build/lib --bindir=/home/jaroslav/bin --enable-gpl --enable-libass --enable-libfdk-aac --enable-libfreetype --enable-libmp3lame --enable-libopus --enable-libtheora --enable-libvorbis --enable-libvpx --enable-libx264 --enable-libx265 --enable-nvenc --enable-libmfx --enable-libxvid --enable-libgsm --enable-libopencore-amrnb --enable-version3 --enable-nonfree
  libavutil      55. 35.100 / 55. 35.100
  libavcodec     57. 66.101 / 57. 66.101
  libavformat    57. 57.100 / 57. 57.100
  libavdevice    57.  2.100 / 57.  2.100
  libavfilter     6. 66.100 /  6. 66.100
  libswscale      4.  3.100 /  4.  3.100
  libswresample   2.  4.100 /  2.  4.100
  libpostproc    54.  2.100 / 54.  2.100
Input #0, yuv4mpegpipe, from 'Input/y4m/old_town_cross_2160p50.y4m':
  Duration: 00:00:10.00, start: 0.000000, bitrate: 4976642 kb/s
    Stream #0:0: Video: rawvideo (I420 / 0x30323449), yuv420p(progressive), 3840x2160, SAR 1:1 DAR 16:9, 50 fps, 50 tbr, 50 tbn, 50 tbc
[libx264 @ 0x34cc120] using SAR=1/1
[libx264 @ 0x34cc120] using cpu capabilities: MMX2 SSE2Fast SSSE3 SSE4.2 AVX FMA3 AVX2 LZCNT BMI2
[libx264 @ 0x34cc120] profile High, level 5.2
[libx264 @ 0x34cc120] 264 - core 148 - H.264/MPEG-4 AVC codec - Copyleft 2003-2016 - http://www.videolan.org/x264.html - options: cabac=1 ref=5 deblock=1:0:0 analyse=0x3:0x113 me=hex subme=8 psy=1 psy_rd=1.00:0.00 mixed_ref=1 me_range=16 chroma_me=1 trellis=2 8x8dct=1 cqm=0 deadzone=21,11 fast_pskip=1 chroma_qp_offset=-2 threads=6 lookahead_threads=1 sliced_threads=0 nr=0 decimate=1 interlaced=0 bluray_compat=0 constrained_intra=0 bframes=3 b_pyramid=2 b_adapt=1 b_bias=0 direct=3 weightb=1 open_gop=0 weightp=2 keyint=250 keyint_min=25 scenecut=40 intra_refresh=0 rc_lookahead=50 rc=abr mbtree=1 bitrate=15000 ratetol=1.0 qcomp=0.60 qpmin=0 qpmax=69 qpstep=4 ip_ratio=1.40 aq=1:1.00
Output #0, matroska, to 'Output/x264/encoded/old_town_cross_2160p50slow15000k.mkv':
  Metadata:
    encoder         : Lavf57.57.100
    Stream #0:0: Video: h264 (libx264) (H264 / 0x34363248), yuv420p, 3840x2160 [SAR 1:1 DAR 16:9], q=-1--1, 15000 kb/s, 50 fps, 1k tbn, 50 tbc
    Metadata:
      encoder         : Lavc57.66.101 libx264
    Side data:
      cpb: bitrate max/min/avg: 0/0/15000000 buffer size: 0 vbv_delay: -1
Stream mapping:
  Stream #0:0 -> #0:0 (rawvideo (native) -> h264 (libx264))
Press [q] to stop, [?] for help
frame=   57 fps= 18 q=0.0 size=       0kB time=00:00:00.00 bitrate=N/A speed=   0x    frame=   62 fps= 12 q=30.0 size=       1kB time=-00:00:00.01 bitrate=N/A speed=N/A    frame=   63 fps= 10 q=30.0 size=       1kB time=00:00:00.00 bitrate=5872.0kbits/s speed=0.000162x    frame=   67 fps=9.7 q=33.0 size=       1kB time=00:00:00.08 bitrate=  72.5kbits/s speed=0.0117x    frame=   69 fps=9.0 q=47.0 size=       1kB time=00:00:00.12 bitrate=  48.5kbits/s speed=0.0158x    frame=   76 fps=9.2 q=51.0 size=       1kB time=00:00:00.26 bitrate=  22.5kbits/s speed=0.0315x    frame=   86 fps=9.7 q=47.0 size=       1kB time=00:00:00.46 bitrate=  12.7kbits/s speed=0.0521x    frame=   92 fps=9.8 q=46.0 size=       1kB time=00:00:00.58 bitrate=  10.1kbits/s speed=0.0619x    frame=   99 fps=9.9 q=44.0 size=       1kB time=00:00:00.72 bitrate=   8.1kbits/s speed=0.072x    frame=  107 fps= 10 q=43.0 size=       1kB time=00:00:00.88 bitrate=   6.7kbits/s speed=0.0837x    frame=  112 fps= 10 q=42.0 size=       1kB time=00:00:00.98 bitrate=   6.0kbits/s speed=0.0875x    frame=  120 fps= 10 q=40.0 size=       1kB time=00:00:01.14 bitrate=   5.1kbits/s speed=0.0952x    frame=  127 fps= 10 q=40.0 size=       1kB time=00:00:01.28 bitrate=   4.6kbits/s speed= 0.1x    frame=  134 fps= 10 q=38.0 size=       1kB time=00:00:01.42 bitrate=   4.1kbits/s speed=0.107x    frame=  137 fps=9.9 q=38.0 size=       1kB time=00:00:01.48 bitrate=   4.0kbits/s speed=0.107x    frame=  143 fps=9.8 q=38.0 size=       1kB time=00:00:01.60 bitrate=   3.7kbits/s speed=0.11x    frame=  148 fps=9.8 q=37.0 size=       1kB time=00:00:01.70 bitrate=   3.5kbits/s speed=0.112x    frame=  151 fps=9.6 q=37.0 size=       1kB time=00:00:01.76 bitrate=   3.3kbits/s speed=0.112x    frame=  157 fps=9.6 q=36.0 size=       1kB time=00:00:01.88 bitrate=   3.1kbits/s speed=0.115x    frame=  161 fps=9.6 q=36.0 size=       1kB time=00:00:01.96 bitrate=   3.0kbits/s speed=0.116x    frame=  165 fps=9.5 q=36.0 size=       1kB time=00:00:02.04 bitrate=   2.9kbits/s speed=0.117x    frame=  168 fps=9.4 q=36.0 size=       1kB time=00:00:02.10 bitrate=   2.8kbits/s speed=0.117x    frame=  174 fps=9.4 q=35.0 size=       1kB time=00:00:02.22 bitrate=   2.6kbits/s speed=0.12x    frame=  175 fps=9.2 q=35.0 size=       1kB time=00:00:02.24 bitrate=   2.6kbits/s speed=0.118x    frame=  181 fps=9.2 q=35.0 size=       1kB time=00:00:02.36 bitrate=   2.5kbits/s speed=0.121x    frame=  183 fps=9.0 q=35.0 size=       1kB time=00:00:02.40 bitrate=   2.4kbits/s speed=0.119x    frame=  188 fps=9.1 q=35.0 size=       1kB time=00:00:02.50 bitrate=   2.3kbits/s speed=0.121x    frame=  191 fps=8.8 q=35.0 size=       1kB time=00:00:02.56 bitrate=   2.3kbits/s speed=0.119x    frame=  197 fps=8.9 q=34.0 size=       1kB time=00:00:02.68 bitrate=   2.2kbits/s speed=0.12x    frame=  199 fps=8.7 q=34.0 size=       1kB time=00:00:02.72 bitrate=   2.2kbits/s speed=0.119x    frame=  204 fps=8.7 q=34.0 size=    5131kB time=00:00:02.82 bitrate=14899.0kbits/s speed=0.12x    frame=  207 fps=8.6 q=34.0 size=    5131kB time=00:00:02.88 bitrate=14588.8kbits/s speed=0.119x    frame=  212 fps=8.6 q=34.0 size=    5131kB time=00:00:02.98 bitrate=14099.4kbits/s speed=0.121x    frame=  215 fps=8.4 q=34.0 size=    5131kB time=00:00:03.04 bitrate=13821.2kbits/s speed=0.119x    frame=  220 fps=8.4 q=34.0 size=    5131kB time=00:00:03.14 bitrate=13381.2kbits/s speed=0.12x    frame=  223 fps=8.2 q=34.0 size=    5131kB time=00:00:03.20 bitrate=13130.3kbits/s speed=0.118x    frame=  228 fps=8.3 q=34.0 size=    5131kB time=00:00:03.30 bitrate=12732.6kbits/s speed=0.12x    frame=  231 fps=8.1 q=34.0 size=    5131kB time=00:00:03.36 bitrate=12505.3kbits/s speed=0.117x    frame=  235 fps=8.1 q=33.0 size=    5131kB time=00:00:03.44 bitrate=12214.5kbits/s speed=0.118x    frame=  239 fps=8.0 q=33.0 size=    5131kB time=00:00:03.52 bitrate=11937.0kbits/s speed=0.117x    frame=  243 fps=7.9 q=33.0 size=    5131kB time=00:00:03.60 bitrate=11671.8kbits/s speed=0.118x    frame=  247 fps=7.8 q=33.0 size=    5131kB time=00:00:03.68 bitrate=11418.1kbits/s speed=0.117x    frame=  251 fps=7.8 q=33.0 size=    5131kB time=00:00:03.76 bitrate=11175.3kbits/s speed=0.117x    frame=  255 fps=7.7 q=33.0 size=    5131kB time=00:00:03.84 bitrate=10942.5kbits/s speed=0.116x    frame=  259 fps=7.7 q=33.0 size=    5131kB time=00:00:03.92 bitrate=10719.3kbits/s speed=0.117x    frame=  263 fps=7.6 q=33.0 size=    5131kB time=00:00:04.00 bitrate=10504.9kbits/s speed=0.115x    frame=  267 fps=7.6 q=33.0 size=    5131kB time=00:00:04.08 bitrate=10299.0kbits/s speed=0.116x    frame=  271 fps=7.4 q=33.0 size=    5131kB time=00:00:04.16 bitrate=10101.0kbits/s speed=0.114x    frame=  273 fps=7.3 q=33.0 size=    5131kB time=00:00:04.20 bitrate=10004.8kbits/s speed=0.112x    frame=  275 fps=7.2 q=33.0 size=    5131kB time=00:00:04.24 bitrate=9910.4kbits/s speed=0.11x    frame=  279 fps=7.2 q=33.0 size=    5131kB time=00:00:04.32 bitrate=9727.0kbits/s speed=0.111x    frame=  280 fps=7.1 q=33.0 size=    5131kB time=00:00:04.34 bitrate=9682.1kbits/s speed=0.109x    frame=  282 fps=7.0 q=34.0 size=    5131kB time=00:00:04.38 bitrate=9593.7kbits/s speed=0.109x    frame=  285 fps=6.9 q=34.0 size=    5131kB time=00:00:04.44 bitrate=9464.1kbits/s speed=0.108x    frame=  288 fps=6.9 q=34.0 size=    5131kB time=00:00:04.50 bitrate=9338.0kbits/s speed=0.107x    frame=  291 fps=6.8 q=34.0 size=    5131kB time=00:00:04.56 bitrate=9215.1kbits/s speed=0.107x    frame=  293 fps=6.7 q=34.0 size=    5131kB time=00:00:04.60 bitrate=9135.0kbits/s speed=0.106x    frame=  296 fps=6.7 q=34.0 size=    5131kB time=00:00:04.66 bitrate=9017.4kbits/s speed=0.106x    frame=  299 fps=6.7 q=34.0 size=    5131kB time=00:00:04.72 bitrate=8902.8kbits/s speed=0.106x    frame=  302 fps=6.6 q=34.0 size=    5131kB time=00:00:04.78 bitrate=8791.1kbits/s speed=0.105x    frame=  305 fps=6.6 q=31.0 size=    5131kB time=00:00:04.84 bitrate=8682.1kbits/s speed=0.105x    frame=  308 fps=6.6 q=35.0 size=    5131kB time=00:00:04.90 bitrate=8575.8kbits/s speed=0.105x    frame=  311 fps=6.5 q=35.0 size=    9129kB time=00:00:04.96 bitrate=15073.8kbits/s speed=0.104x    frame=  316 fps=6.5 q=35.0 size=    9129kB time=00:00:05.06 bitrate=14776.0kbits/s speed=0.105x    frame=  320 fps=6.5 q=35.0 size=    9129kB time=00:00:05.14 bitrate=14546.1kbits/s speed=0.105x    frame=  324 fps=6.5 q=35.0 size=    9129kB time=00:00:05.22 bitrate=14323.2kbits/s speed=0.105x    frame=  328 fps=6.5 q=35.0 size=    9129kB time=00:00:05.30 bitrate=14107.0kbits/s speed=0.105x    frame=  332 fps=6.5 q=35.0 size=    9129kB time=00:00:05.38 bitrate=13897.3kbits/s speed=0.105x    frame=  336 fps=6.5 q=34.0 size=    9129kB time=00:00:05.46 bitrate=13693.7kbits/s speed=0.106x    frame=  340 fps=6.5 q=34.0 size=    9129kB time=00:00:05.54 bitrate=13496.0kbits/s speed=0.106x    frame=  344 fps=6.5 q=34.0 size=    9129kB time=00:00:05.62 bitrate=13303.9kbits/s speed=0.106x    frame=  348 fps=6.5 q=34.0 size=    9129kB time=00:00:05.70 bitrate=13117.2kbits/s speed=0.106x    frame=  352 fps=6.5 q=34.0 size=    9129kB time=00:00:05.78 bitrate=12935.7kbits/s speed=0.106x    frame=  356 fps=6.5 q=34.0 size=    9129kB time=00:00:05.86 bitrate=12759.1kbits/s speed=0.106x    frame=  360 fps=6.5 q=34.0 size=    9129kB time=00:00:05.94 bitrate=12587.3kbits/s speed=0.106x    frame=  364 fps=6.4 q=34.0 size=    9129kB time=00:00:06.02 bitrate=12420.1kbits/s speed=0.107x    frame=  368 fps=6.4 q=34.0 size=    9129kB time=00:00:06.10 bitrate=12257.2kbits/s speed=0.107x    frame=  373 fps=6.5 q=34.0 size=    9129kB time=00:00:06.20 bitrate=12059.6kbits/s speed=0.107x    frame=  376 fps=6.4 q=34.0 size=    9129kB time=00:00:06.26 bitrate=11944.0kbits/s speed=0.107x    frame=  380 fps=6.4 q=34.0 size=    9129kB time=00:00:06.34 bitrate=11793.3kbits/s speed=0.107x    frame=  384 fps=6.4 q=34.0 size=    9129kB time=00:00:06.42 bitrate=11646.4kbits/s speed=0.107x    frame=  388 fps=6.4 q=34.0 size=    9129kB time=00:00:06.50 bitrate=11503.1kbits/s speed=0.107x    frame=  392 fps=6.4 q=34.0 size=    9129kB time=00:00:06.58 bitrate=11363.2kbits/s speed=0.107x    frame=  396 fps=6.4 q=34.0 size=    9129kB time=00:00:06.66 bitrate=11226.7kbits/s speed=0.107x    frame=  400 fps=6.4 q=33.0 size=    9129kB time=00:00:06.74 bitrate=11093.5kbits/s speed=0.107x    frame=  404 fps=6.3 q=33.0 size=    9129kB time=00:00:06.82 bitrate=10963.4kbits/s speed=0.107x    frame=  408 fps=6.3 q=33.0 size=    9129kB time=00:00:06.90 bitrate=10836.3kbits/s speed=0.107x    frame=  412 fps=6.3 q=33.0 size=    9129kB time=00:00:06.98 bitrate=10712.1kbits/s speed=0.107x    frame=  416 fps=6.3 q=33.0 size=    9129kB time=00:00:07.06 bitrate=10590.8kbits/s speed=0.107x    frame=  420 fps=6.3 q=33.0 size=    9129kB time=00:00:07.14 bitrate=10472.1kbits/s speed=0.107x    frame=  424 fps=6.3 q=33.0 size=    9129kB time=00:00:07.22 bitrate=10356.1kbits/s speed=0.107x    frame=  428 fps=6.3 q=33.0 size=    9129kB time=00:00:07.30 bitrate=10242.6kbits/s speed=0.107x    frame=  432 fps=6.3 q=33.0 size=    9129kB time=00:00:07.38 bitrate=10131.6kbits/s speed=0.107x    frame=  436 fps=6.2 q=33.0 size=    9129kB time=00:00:07.46 bitrate=10023.0kbits/s speed=0.107x    frame=  440 fps=6.2 q=33.0 size=    9129kB time=00:00:07.54 bitrate=9916.6kbits/s speed=0.107x    frame=  444 fps=6.2 q=33.0 size=    9129kB time=00:00:07.62 bitrate=9812.5kbits/s speed=0.107x    frame=  448 fps=6.2 q=33.0 size=    9129kB time=00:00:07.70 bitrate=9710.6kbits/s speed=0.107x    frame=  452 fps=6.2 q=33.0 size=    9129kB time=00:00:07.78 bitrate=9610.8kbits/s speed=0.107x    frame=  458 fps=6.2 q=33.0 size=    9129kB time=00:00:07.90 bitrate=9464.8kbits/s speed=0.107x    frame=  460 fps=6.2 q=33.0 size=    9129kB time=00:00:07.94 bitrate=9417.1kbits/s speed=0.107x    frame=  465 fps=6.2 q=33.0 size=   14259kB time=00:00:08.04 bitrate=14526.4kbits/s speed=0.107x    frame=  468 fps=6.2 q=33.0 size=   14259kB time=00:00:08.10 bitrate=14418.8kbits/s speed=0.107x    frame=  472 fps=6.2 q=33.0 size=   14259kB time=00:00:08.18 bitrate=14277.8kbits/s speed=0.107x    frame=  476 fps=6.1 q=33.0 size=   14259kB time=00:00:08.26 bitrate=14139.6kbits/s speed=0.107x    frame=  480 fps=6.1 q=33.0 size=   14259kB time=00:00:08.34 bitrate=14003.9kbits/s speed=0.107x    frame=  484 fps=6.1 q=33.0 size=   14259kB time=00:00:08.42 bitrate=13870.9kbits/s speed=0.106x    frame=  488 fps=6.1 q=33.0 size=   14259kB time=00:00:08.50 bitrate=13740.4kbits/s speed=0.106x    frame=  492 fps=6.1 q=33.0 size=   14259kB time=00:00:08.58 bitrate=13612.3kbits/s speed=0.106x    frame=  496 fps=6.1 q=33.0 size=   14259kB time=00:00:08.66 bitrate=13486.5kbits/s speed=0.106x    frame=  500 fps=6.1 q=33.0 size=   14259kB time=00:00:08.74 bitrate=13363.1kbits/s speed=0.106x    frame=  500 fps=5.2 q=-1.0 Lsize=   18736kB time=00:00:09.94 bitrate=15439.4kbits/s speed=0.104x    
video:18731kB audio:0kB subtitle:0kB other streams:0kB global headers:0kB muxing overhead: 0.024645%
bench: utime=360.192s
bench: maxrss=2232472kB
[libx264 @ 0x34cc120] frame I:3     Avg QP:28.37  size:750474
[libx264 @ 0x34cc120] frame P:183   Avg QP:32.67  size: 59403
[libx264 @ 0x34cc120] frame B:314   Avg QP:34.95  size: 19292
[libx264 @ 0x34cc120] consecutive B-frames: 16.0%  0.8%  0.0% 83.2%
[libx264 @ 0x34cc120] mb I  I16..4:  8.7% 79.8% 11.5%
[libx264 @ 0x34cc120] mb P  I16..4:  0.0%  0.1%  0.0%  P16..4: 41.8%  4.3%  8.7%  0.0%  0.0%    skip:45.1%
[libx264 @ 0x34cc120] mb B  I16..4:  0.0%  0.0%  0.0%  B16..8: 50.3%  0.3%  0.1%  direct: 0.2%  skip:49.1%  L0:47.9% L1:52.0% BI: 0.1%
[libx264 @ 0x34cc120] final ratefactor: 25.96
[libx264 @ 0x34cc120] 8x8 transform intra:80.3% inter:63.7%
[libx264 @ 0x34cc120] direct mvs  spatial:98.7% temporal:1.3%
[libx264 @ 0x34cc120] coded y,uvDC,uvAC intra: 93.5% 85.1% 70.9% inter: 6.0% 6.7% 0.1%
[libx264 @ 0x34cc120] i16 v,h,dc,p: 15% 26% 10% 48%
[libx264 @ 0x34cc120] i8 v,h,dc,ddl,ddr,vr,hd,vl,hu:  6%  8%  4% 13% 17% 13% 17%  9% 12%
[libx264 @ 0x34cc120] i4 v,h,dc,ddl,ddr,vr,hd,vl,hu:  2%  3%  1% 20% 20% 14% 18% 10% 13%
[libx264 @ 0x34cc120] i8c dc,h,v,p: 50% 23% 14% 13%
[libx264 @ 0x34cc120] Weighted P-Frames: Y:0.5% UV:0.0%
[libx264 @ 0x34cc120] ref P L0: 55.8% 16.8% 16.7%  4.5%  4.4%  1.8%
[libx264 @ 0x34cc120] ref B L0: 75.7% 16.3%  6.7%  1.3%
[libx264 @ 0x34cc120] ref B L1: 93.2%  6.8%
[libx264 @ 0x34cc120] kb/s:15344.01
